#Comment line ignore any data following # character 
#Hierarchical Translation and Rotation (.htr) file 
[Header]	
#Header keywords are followed by a single value 
FileType HTR		#Single word string
DataType HTRS		#Translation followed by rotation and scale data
FileVersion 1		#integer
NumSegments 84		#integer
NumFrames 2		#integer
DataFrameRate 30		#integer, data frame rate in this file
EulerRotationOrder ZYX
CalibrationUnits mm
RotationUnits Degrees
GlobalAxisofGravity Y
BoneLengthAxis Y
ScaleFactor 1.00
[SegmentNames&Hierarchy]
#CHILD	PARENT
MASTER GLOBAL
root MASTER
chest root
L_mid_tent01 root
R_mid_tent01 root
spine01 root
Bip01_Neck chest
L_humerus chest
R_humerus chest
weapon_bone chest
Bip01_Head Bip01_Neck
eye_left_bone Bip01_Head
eye_right_bone Bip01_Head
L_forearm L_humerus
L_front_hand L_forearm
L_weapon_bone L_forearm
L_front_hand01_01 L_front_hand
L_front_hand02_01 L_front_hand
L_front_hand03_01 L_front_hand
L_front_hand01_02 L_front_hand01_01
L_front_hand02_02 L_front_hand02_01
L_front_hand03_02 L_front_hand03_01
R_forearm R_humerus
R_front_hand R_forearm
R_weapon_bone R_forearm
R_front_hand01_01 R_front_hand
R_front_hand02_01 R_front_hand
R_front_hand03_01 R_front_hand
R_front_hand01_02 R_front_hand01_01
R_front_hand02_02 R_front_hand02_01
R_front_hand03_02 R_front_hand03_01
null_rope01_connect L_mid_tent01
Rope1_Seg01 null_rope01_connect
Rope1_Seg02 Rope1_Seg01
Rope1_Seg03 Rope1_Seg02
Rope1_Seg04 Rope1_Seg03
Rope1_Seg05 Rope1_Seg04
Rope1_Seg06 Rope1_Seg05
Rope1_Seg07 Rope1_Seg06
Rope1_Seg09 Rope1_Seg07
L_mid_hand01 Rope1_Seg09
L_mid_hand02 Rope1_Seg09
L_mid_hand03 Rope1_Seg09
null_rope02_connect R_mid_tent01
Rope2_Seg01 null_rope02_connect
Rope2_Seg02 Rope2_Seg01
Rope2_Seg03 Rope2_Seg02
Rope2_Seg04 Rope2_Seg03
Rope2_Seg05 Rope2_Seg04
Rope2_Seg06 Rope2_Seg05
Rope2_Seg07 Rope2_Seg06
Rope2_Seg09 Rope2_Seg07
R_mid_hand01 Rope2_Seg09
R_mid_hand02 Rope2_Seg09
R_mid_hand03 Rope2_Seg09
spine02 spine01
spine03 spine02
pelvis spine03
null_rope03_connect pelvis
null_rope04_connect pelvis
Rope3_Seg01 null_rope03_connect
Rope3_Seg02 Rope3_Seg01
Rope3_Seg03 Rope3_Seg02
Rope3_Seg04 Rope3_Seg03
Rope3_Seg05 Rope3_Seg04
Rope3_Seg06 Rope3_Seg05
Rope3_Seg07 Rope3_Seg06
Rope3_Seg08 Rope3_Seg07
Rope3_Seg09 Rope3_Seg08
R_rear_hand01 Rope3_Seg09
R_rear_hand02 Rope3_Seg09
R_rear_hand03 Rope3_Seg09
Rope4_Seg01 null_rope04_connect
Rope4_Seg02 Rope4_Seg01
Rope4_Seg03 Rope4_Seg02
Rope4_Seg04 Rope4_Seg03
Rope4_Seg05 Rope4_Seg04
Rope4_Seg06 Rope4_Seg05
Rope4_Seg07 Rope4_Seg06
Rope4_Seg08 Rope4_Seg07
Rope4_Seg09 Rope4_Seg08
L_rear_hand01 Rope4_Seg09
L_rear_hand02 Rope4_Seg09
L_rear_hand03 Rope4_Seg09
[BasePosition]
#SegmentName Tx, Ty, Tz, Rx, Ry, Rz, BoneLength
MASTER 0.000000 0.000000 0.000000 -90.000000 0.000000 0.000000 10.000000 
root 0.000000 0.000000 0.000000 0.000000 0.000000 0.000000 10.000000 
chest 0.000000 0.000000 0.000000 0.000000 0.000000 0.000000 10.000000 
L_mid_tent01 0.000000 0.000000 0.000000 0.000000 0.000000 0.000000 10.000000 
R_mid_tent01 0.000000 0.000000 0.000000 0.000000 0.000000 0.000000 10.000000 
spine01 0.000000 0.000000 0.000000 0.000000 0.000000 0.000000 10.000000 
Bip01_Neck 0.000000 0.000000 0.000000 0.000000 0.000000 0.000000 10.000000 
L_humerus 0.000000 0.000000 0.000000 0.000000 0.000000 0.000000 10.000000 
R_humerus 0.000000 0.000000 0.000000 0.000000 0.000000 0.000000 10.000000 
weapon_bone 0.000000 0.000000 0.000000 0.000000 0.000000 0.000000 10.000000 
Bip01_Head 0.000000 0.000000 0.000000 0.000000 0.000000 0.000000 10.000000 
eye_left_bone 0.000000 0.000000 0.000000 0.000000 0.000000 0.000000 10.000000 
eye_right_bone 0.000000 0.000000 0.000000 0.000000 0.000000 0.000000 10.000000 
L_forearm 0.000000 0.000000 0.000000 0.000000 0.000000 0.000000 10.000000 
L_front_hand 0.000000 0.000000 0.000000 0.000000 0.000000 0.000000 10.000000 
L_weapon_bone 0.000000 0.000000 0.000000 0.000000 0.000000 0.000000 10.000000 
L_front_hand01_01 0.000000 0.000000 0.000000 0.000000 0.000000 0.000000 10.000000 
L_front_hand02_01 0.000000 0.000000 0.000000 0.000000 0.000000 0.000000 10.000000 
L_front_hand03_01 0.000000 0.000000 0.000000 0.000000 0.000000 0.000000 10.000000 
L_front_hand01_02 0.000000 0.000000 0.000000 0.000000 0.000000 0.000000 10.000000 
L_front_hand02_02 0.000000 0.000000 0.000000 0.000000 0.000000 0.000000 10.000000 
L_front_hand03_02 0.000000 0.000000 0.000000 0.000000 0.000000 0.000000 10.000000 
R_forearm 0.000000 0.000000 0.000000 0.000000 0.000000 0.000000 10.000000 
R_front_hand 0.000000 0.000000 0.000000 0.000000 0.000000 0.000000 10.000000 
R_weapon_bone 0.000000 0.000000 0.000000 0.000000 0.000000 0.000000 10.000000 
R_front_hand01_01 0.000000 0.000000 0.000000 0.000000 0.000000 0.000000 10.000000 
R_front_hand02_01 0.000000 0.000000 0.000000 0.000000 0.000000 0.000000 10.000000 
R_front_hand03_01 0.000000 0.000000 0.000000 0.000000 0.000000 0.000000 10.000000 
R_front_hand01_02 0.000000 0.000000 0.000000 0.000000 0.000000 0.000000 10.000000 
R_front_hand02_02 0.000000 0.000000 0.000000 0.000000 0.000000 0.000000 10.000000 
R_front_hand03_02 0.000000 0.000000 0.000000 0.000000 0.000000 0.000000 10.000000 
null_rope01_connect 0.000000 0.000000 0.000000 0.000000 0.000000 0.000000 10.000000 
Rope1_Seg01 0.000000 0.000000 0.000000 0.000000 0.000000 0.000000 10.000000 
Rope1_Seg02 0.000000 0.000000 0.000000 0.000000 0.000000 0.000000 10.000000 
Rope1_Seg03 0.000000 0.000000 0.000000 0.000000 0.000000 0.000000 10.000000 
Rope1_Seg04 0.000000 0.000000 0.000000 0.000000 0.000000 0.000000 10.000000 
Rope1_Seg05 0.000000 0.000000 0.000000 0.000000 0.000000 0.000000 10.000000 
Rope1_Seg06 0.000000 0.000000 0.000000 0.000000 0.000000 0.000000 10.000000 
Rope1_Seg07 0.000000 0.000000 0.000000 0.000000 0.000000 0.000000 10.000000 
Rope1_Seg09 0.000000 0.000000 0.000000 0.000000 0.000000 0.000000 10.000000 
L_mid_hand01 0.000000 0.000000 0.000000 0.000000 0.000000 0.000000 10.000000 
L_mid_hand02 0.000000 0.000000 0.000000 0.000000 0.000000 0.000000 10.000000 
L_mid_hand03 0.000000 0.000000 0.000000 0.000000 0.000000 0.000000 10.000000 
null_rope02_connect 0.000000 0.000000 0.000000 0.000000 0.000000 0.000000 10.000000 
Rope2_Seg01 0.000000 0.000000 0.000000 0.000000 0.000000 0.000000 10.000000 
Rope2_Seg02 0.000000 0.000000 0.000000 0.000000 0.000000 0.000000 10.000000 
Rope2_Seg03 0.000000 0.000000 0.000000 0.000000 0.000000 0.000000 10.000000 
Rope2_Seg04 0.000000 0.000000 0.000000 0.000000 0.000000 0.000000 10.000000 
Rope2_Seg05 0.000000 0.000000 0.000000 0.000000 0.000000 0.000000 10.000000 
Rope2_Seg06 0.000000 0.000000 0.000000 0.000000 0.000000 0.000000 10.000000 
Rope2_Seg07 0.000000 0.000000 0.000000 0.000000 0.000000 0.000000 10.000000 
Rope2_Seg09 0.000000 0.000000 0.000000 0.000000 0.000000 0.000000 10.000000 
R_mid_hand01 0.000000 0.000000 0.000000 0.000000 0.000000 0.000000 10.000000 
R_mid_hand02 0.000000 0.000000 0.000000 0.000000 0.000000 0.000000 10.000000 
R_mid_hand03 0.000000 0.000000 0.000000 0.000000 0.000000 0.000000 10.000000 
spine02 0.000000 0.000000 0.000000 0.000000 0.000000 0.000000 10.000000 
spine03 0.000000 0.000000 0.000000 0.000000 0.000000 0.000000 10.000000 
pelvis 0.000000 0.000000 0.000000 0.000000 0.000000 0.000000 10.000000 
null_rope03_connect 0.000000 0.000000 0.000000 0.000000 0.000000 0.000000 10.000000 
null_rope04_connect 0.000000 0.000000 0.000000 0.000000 0.000000 0.000000 10.000000 
Rope3_Seg01 0.000000 0.000000 0.000000 0.000000 0.000000 0.000000 10.000000 
Rope3_Seg02 0.000000 0.000000 0.000000 0.000000 0.000000 0.000000 10.000000 
Rope3_Seg03 0.000000 0.000000 0.000000 0.000000 0.000000 0.000000 10.000000 
Rope3_Seg04 0.000000 0.000000 0.000000 0.000000 0.000000 0.000000 10.000000 
Rope3_Seg05 0.000000 0.000000 0.000000 0.000000 0.000000 0.000000 10.000000 
Rope3_Seg06 0.000000 0.000000 0.000000 0.000000 0.000000 0.000000 10.000000 
Rope3_Seg07 0.000000 0.000000 0.000000 0.000000 0.000000 0.000000 10.000000 
Rope3_Seg08 0.000000 0.000000 0.000000 0.000000 0.000000 0.000000 10.000000 
Rope3_Seg09 0.000000 0.000000 0.000000 0.000000 0.000000 0.000000 10.000000 
R_rear_hand01 0.000000 0.000000 0.000000 0.000000 0.000000 0.000000 10.000000 
R_rear_hand02 0.000000 0.000000 0.000000 0.000000 0.000000 0.000000 10.000000 
R_rear_hand03 0.000000 0.000000 0.000000 0.000000 0.000000 0.000000 10.000000 
Rope4_Seg01 0.000000 0.000000 0.000000 0.000000 0.000000 0.000000 10.000000 
Rope4_Seg02 0.000000 0.000000 0.000000 0.000000 0.000000 0.000000 10.000000 
Rope4_Seg03 0.000000 0.000000 0.000000 0.000000 0.000000 0.000000 10.000000 
Rope4_Seg04 0.000000 0.000000 0.000000 0.000000 0.000000 0.000000 10.000000 
Rope4_Seg05 0.000000 0.000000 0.000000 0.000000 0.000000 0.000000 10.000000 
Rope4_Seg06 0.000000 0.000000 0.000000 0.000000 0.000000 0.000000 10.000000 
Rope4_Seg07 0.000000 0.000000 0.000000 0.000000 0.000000 0.000000 10.000000 
Rope4_Seg08 0.000000 0.000000 0.000000 0.000000 0.000000 0.000000 10.000000 
Rope4_Seg09 0.000000 0.000000 0.000000 0.000000 0.000000 0.000000 10.000000 
L_rear_hand01 0.000000 0.000000 0.000000 0.000000 0.000000 0.000000 10.000000 
L_rear_hand02 0.000000 0.000000 0.000000 0.000000 0.000000 0.000000 10.000000 
L_rear_hand03 0.000000 0.000000 0.000000 0.000000 0.000000 0.000000 10.000000 
#Beginning of Data. Separated by tabs
#Fr	Tx	Ty	Tz	Rx	Ry	Rz	SF
[MASTER]
15 -0.000461 3119.663086 2171.804443 0.001660 0.001660 0.001660 3801.188232
16 -0.000510 3442.410645 1979.934082 0.001660 0.001660 0.001660 3971.187500
[root]
15 -96.322754 211.734833 1701.973633 -61.491901 -23.381588 -79.019638 1717.796387
16 -104.675102 240.464172 1706.151978 -63.739784 -29.140879 -72.238434 1726.190796
[chest]
15 -84.512650 -34.090519 0.000000 5.583478 -1.460184 163.224503 91.129311
16 -84.512650 -34.090519 0.000000 5.425140 -1.866404 166.923004 91.129311
[L_mid_tent01]
15 27.299383 22.178236 -249.918335 -27.792871 22.863949 21.519762 252.381271
16 27.299376 22.178293 -249.918365 -30.350410 14.055624 17.681961 252.381302
[R_mid_tent01]
15 23.228794 24.509907 226.238495 -77.554047 -65.844170 -28.769560 228.744751
16 23.228794 24.509907 226.238495 -2.519521 -84.936775 -104.570595 228.744751
[spine01]
15 -0.361383 -0.195265 0.000000 0.514274 0.211745 19.133673 0.410763
16 -0.361383 -0.195265 0.000000 0.491261 0.201880 19.259928 0.410763
[Bip01_Neck]
15 165.484543 71.581718 0.000119 175.896118 1.177290 24.871183 180.302734
16 165.484543 71.581718 0.000119 175.896118 1.177290 24.871183 180.302734
[L_humerus]
15 -13.983130 -135.272980 -120.471481 -142.686707 87.677208 -52.601311 181.680161
16 -13.983130 -135.272980 -120.471481 -121.449509 88.318214 -31.364674 181.680161
[R_humerus]
15 -13.983309 -135.273102 125.287651 86.197945 -81.822113 -6.892536 184.909012
16 -13.983309 -135.273102 125.287651 89.529953 -23.810871 -5.411788 184.909012
[weapon_bone]
15 235.964890 -300.705902 0.000000 0.000000 -89.951546 -128.212341 382.234833
16 235.964890 -300.705902 0.000000 0.000000 -89.951546 -128.212341 382.234833
[Bip01_Head]
15 242.776627 176.075775 -9.343263 -14.610716 5.844590 -62.454464 300.050781
16 241.899048 179.246216 -9.491170 -25.235001 5.844562 -62.457653 301.221588
[eye_left_bone]
15 -24.626970 125.451866 -64.772606 0.000000 -90.000000 -99.840431 143.318359
16 -24.626970 125.451866 -64.772606 0.000000 -90.000000 -99.840431 143.318359
[eye_right_bone]
15 -24.626970 125.451866 64.327362 0.000000 -89.960434 80.159386 143.117676
16 -24.626970 125.451866 64.327362 0.000000 -89.960434 80.159386 143.117676
[L_forearm]
15 322.776093 0.000000 -0.000119 0.000260 -0.002333 -102.734329 322.776093
16 322.776093 0.000000 -0.000119 0.000266 -0.002332 -103.015343 322.776093
[L_front_hand]
15 241.149185 -0.042021 -3.300071 -178.667953 -1.835447 -27.422350 241.171753
16 241.149185 -0.042021 -3.300071 -178.667953 -1.835447 -27.422350 241.171753
[L_weapon_bone]
15 156.183838 0.000000 0.000000 0.000014 0.000007 0.000001 156.183838
16 156.183838 0.000000 0.000000 0.000014 0.000007 0.000001 156.183838
[L_front_hand01_01]
15 86.095154 20.947098 -0.655860 -0.366594 -0.477154 75.385574 88.609184
16 86.095154 20.947098 -0.655860 -0.366594 -0.477154 75.385574 88.609184
[L_front_hand02_01]
15 86.935165 -11.437475 24.513514 154.403519 -59.888931 -61.371990 91.046425
16 86.935165 -11.437475 24.513514 154.403519 -59.888931 -61.371990 91.046425
[L_front_hand03_01]
15 86.637497 -14.123976 -20.424902 -153.913849 58.118122 -62.702866 90.126129
16 86.637497 -14.123976 -20.424902 -153.913849 58.118122 -62.702866 90.126129
[L_front_hand01_02]
15 71.020905 -0.000179 0.000030 0.000334 -0.002323 -106.379684 71.020905
16 71.020905 -0.000179 0.000030 0.000334 -0.002323 -106.379684 71.020905
[L_front_hand02_02]
15 71.020927 -0.000119 0.000060 0.000334 -0.002323 -106.379684 71.020927
16 71.020927 -0.000119 0.000060 0.000334 -0.002323 -106.379684 71.020927
[L_front_hand03_02]
15 71.020905 -0.000060 0.000060 0.000334 -0.002323 -106.379684 71.020905
16 71.020905 -0.000060 0.000060 0.000334 -0.002323 -106.379684 71.020905
[R_forearm]
15 322.776428 -0.000060 0.000030 0.103776 -0.185214 -30.660126 322.776428
16 322.776428 -0.000060 0.000030 0.004343 -0.210967 -1.457366 322.776428
[R_front_hand]
15 238.847015 -0.006795 2.210259 -7.755676 1.477793 -8.717698 238.857239
16 238.847015 -0.006795 2.210259 -0.526913 1.646382 -6.439413 238.857239
[R_weapon_bone]
15 155.664093 0.002503 -0.000030 0.003487 0.001180 -90.988930 155.664078
16 155.664093 0.002503 -0.000030 0.003487 0.001180 -90.988930 155.664078
[R_front_hand01_01]
15 87.624611 14.231146 22.918642 -154.633499 -59.950619 61.746044 91.683487
16 87.624611 14.231146 22.918642 -154.633499 -59.950619 61.746044 91.683487
[R_front_hand02_01]
15 89.356956 14.367283 -19.491137 154.602661 58.302849 63.744389 92.579636
16 89.356956 14.367283 -19.491137 154.602661 58.302849 63.744389 92.579636
[R_front_hand03_01]
15 87.286232 -22.307278 -0.143439 0.162155 -0.423168 -75.767921 90.091743
16 87.286232 -22.307278 -0.143439 0.162155 -0.423168 -75.767921 90.091743
[R_front_hand01_02]
15 71.020905 0.000060 0.000119 0.001777 0.001534 8.377220 71.020905
16 71.020905 0.000060 0.000119 0.001777 0.001534 8.377220 71.020905
[R_front_hand02_02]
15 71.020844 -0.000030 -0.000119 0.001777 0.001534 8.377220 71.020836
16 71.020844 -0.000030 -0.000119 0.001777 0.001534 8.377220 71.020836
[R_front_hand03_02]
15 71.020905 0.000000 0.000030 0.001777 0.001534 8.377220 71.020905
16 71.020905 0.000000 0.000030 0.001777 0.001534 8.377220 71.020905
[null_rope01_connect]
15 328.732483 0.000000 -0.000238 159.518494 -87.831917 -75.406960 328.732483
16 328.732483 0.000000 -0.000238 111.152313 -77.030235 -13.433596 328.732483
[Rope1_Seg01]
15 0.000000 0.000000 0.000000 118.511635 19.847725 -136.690567 0.000000
16 0.000000 0.000000 0.000000 57.980881 14.722418 -121.902824 0.000000
[Rope1_Seg02]
15 139.999863 -0.000179 0.000000 49.138195 -27.209780 -12.670413 139.999863
16 139.999863 -0.000179 0.000000 107.022453 -4.742340 -25.989864 139.999863
[Rope1_Seg03]
15 139.999924 0.000060 -0.000060 5.619056 -22.797810 10.505287 139.999924
16 139.999924 0.000060 -0.000060 9.021579 -17.846867 8.552419 139.999924
[Rope1_Seg04]
15 139.999924 -0.000060 -0.000119 0.939598 -14.413873 8.220606 139.999924
16 139.999924 -0.000060 -0.000119 -0.518136 -18.814489 16.780161 139.999924
[Rope1_Seg05]
15 139.999832 0.000119 -0.000060 -0.201729 -11.654200 6.767396 139.999832
16 139.999832 0.000119 -0.000060 -1.214716 -13.452800 13.356898 139.999832
[Rope1_Seg06]
15 139.999954 0.000119 -0.000060 -0.437230 -7.162937 4.316463 139.999954
16 139.999954 0.000119 -0.000060 -0.261372 -5.766523 5.513619 139.999954
[Rope1_Seg07]
15 139.999985 0.000060 0.000000 -0.408447 -4.654891 2.780519 139.999985
16 139.999985 0.000060 0.000000 -0.115883 -3.340168 3.181927 139.999985
[Rope1_Seg09]
15 121.602913 0.000119 -0.000089 -89.793175 -1.359789 0.847147 121.602913
16 121.602913 0.000119 -0.000089 -89.793175 -1.359789 0.847147 121.602913
[L_mid_hand01]
15 103.859421 1.038730 8.195221 114.520287 -53.310486 -20.623234 104.187431
16 103.859421 1.038730 8.195221 114.520287 -53.310486 -20.623234 104.187431
[L_mid_hand02]
15 105.572853 -4.139662 -10.864139 -155.067673 38.166626 -52.448818 106.211075
16 105.572853 -4.139662 -10.864139 -155.067673 38.166626 -52.448818 106.211075
[L_mid_hand03]
15 104.641464 17.579376 -3.913581 -10.970130 15.317461 57.626949 106.179977
16 104.641464 17.579376 -3.913581 -10.970130 15.317461 57.626949 106.179977
[null_rope02_connect]
15 328.732849 0.000179 -0.000119 -142.031601 -39.305836 -23.133064 328.732849
16 328.732849 0.000179 -0.000119 -140.510651 -42.498119 6.914211 328.732849
[Rope2_Seg01]
15 -0.000002 -0.000136 0.000058 59.565643 -34.192684 -74.999214 0.000148
16 0.000001 -0.000157 0.000062 60.771095 -41.025795 -78.383858 0.000168
[Rope2_Seg02]
15 139.999741 -0.000060 -0.000119 -5.923646 2.064248 12.655594 139.999756
16 139.999741 -0.000060 -0.000119 -2.135198 0.144952 6.353584 139.999756
[Rope2_Seg03]
15 140.000107 0.000030 0.000000 -9.786715 -0.175552 50.085835 140.000107
16 140.000107 0.000030 0.000000 -4.062699 -0.240161 16.612074 140.000107
[Rope2_Seg04]
15 139.999802 0.000000 -0.000060 7.115623 -5.613842 45.976170 139.999802
16 139.999802 0.000000 -0.000060 -0.103172 -6.794948 55.539783 139.999802
[Rope2_Seg05]
15 139.999985 -0.000060 0.000119 21.669596 15.097073 39.075214 139.999985
16 139.999985 -0.000060 0.000119 17.069036 0.632252 37.690823 139.999985
[Rope2_Seg06]
15 139.999893 -0.000030 -0.000119 8.667046 15.013603 19.751894 139.999893
16 139.999893 -0.000030 -0.000119 23.249166 19.439177 35.050846 139.999893
[Rope2_Seg07]
15 139.999893 0.000060 -0.000060 1.618857 5.857548 6.491660 139.999893
16 139.999893 0.000060 -0.000060 6.403429 14.643593 14.717693 139.999893
[Rope2_Seg09]
15 121.338966 0.000089 -0.000060 -176.585388 0.628455 -1.384864 121.338966
16 121.338966 0.000089 -0.000060 -83.061584 0.545172 -1.498062 121.338966
[R_mid_hand01]
15 104.680779 11.144459 -10.335981 -16.571243 45.135548 69.956093 105.778534
16 104.680779 11.144459 -10.335981 -17.573614 44.823460 68.535278 105.778534
[R_mid_hand02]
15 104.070427 2.443552 8.231699 49.667553 -67.470291 38.640572 104.424065
16 104.070427 2.443552 8.231699 51.246105 -66.659927 36.928188 104.424065
[R_mid_hand03]
15 106.028137 -11.221827 -5.996406 -176.995804 15.531577 -76.195831 106.788818
16 106.028137 -11.221827 -5.996406 -176.706177 15.474276 -75.111900 106.788818
[spine02]
15 129.756927 0.001550 0.000119 -0.256065 -13.610608 -4.312057 129.756927
16 129.756927 0.001550 0.000119 -0.254290 -14.054249 -4.313310 129.756927
[spine03]
15 78.557655 0.094198 -5.447926 0.942098 4.674192 3.626222 78.746391
16 78.557755 0.094070 -5.447028 0.989501 4.638767 4.208952 78.746422
[pelvis]
15 169.435242 0.051022 0.000000 -0.056961 -0.431096 6.358364 169.435257
16 169.435242 0.051022 0.000000 -0.057512 -0.418580 6.697062 169.435257
[null_rope03_connect]
15 -1.257226 -2.466202 137.391083 49.869713 -49.496883 38.403576 137.418976
16 -1.257226 -2.466202 137.391083 60.464565 -44.719860 31.503620 137.418976
[null_rope04_connect]
15 -1.259640 -2.480268 -137.844437 49.869713 -49.496883 38.403576 137.872513
16 -1.259640 -2.480268 -137.844437 60.464565 -44.719860 31.503620 137.872513
[Rope3_Seg01]
15 -0.000025 -0.000255 0.000000 -140.321930 -59.926647 -75.613503 0.000256
16 -0.000025 -0.000270 0.000000 -137.512863 -63.935112 -80.015854 0.000271
[Rope3_Seg02]
15 139.999924 -0.000119 0.000060 -1.338957 3.882143 -2.894557 139.999924
16 139.999924 -0.000119 0.000060 -1.097232 3.473385 -2.778113 139.999924
[Rope3_Seg03]
15 139.999924 -0.000119 0.000119 -2.320188 6.324440 -4.517070 139.999924
16 139.999924 -0.000119 0.000119 -1.887377 5.497280 -4.254555 139.999924
[Rope3_Seg04]
15 139.999924 0.000119 0.000000 -4.610285 12.047647 -7.557096 139.999924
16 139.999924 0.000119 0.000000 -3.774913 9.973530 -7.126882 139.999924
[Rope3_Seg05]
15 139.999924 -0.000238 0.000060 -6.164848 19.660614 -9.262570 139.999924
16 139.999924 -0.000238 0.000060 -5.799411 17.337526 -9.316170 139.999924
[Rope3_Seg06]
15 139.999893 -0.000119 -0.000060 -14.098976 34.304405 -25.544462 139.999893
16 139.999893 -0.000119 -0.000060 -11.536635 28.767071 -20.766953 139.999893
[Rope3_Seg07]
15 139.999771 0.000060 -0.000119 -14.424468 41.046806 -29.580956 139.999771
16 139.999771 0.000060 -0.000119 -17.507563 40.535805 -31.550076 139.999771
[Rope3_Seg08]
15 139.999985 -0.000060 0.000000 0.010473 11.118661 -5.067412 139.999985
16 139.999985 -0.000060 0.000000 -0.892560 13.636553 -6.179805 139.999985
[Rope3_Seg09]
15 90.185997 -0.000179 -0.000060 69.683540 -1.360007 -0.848287 90.185997
16 90.185997 -0.000179 -0.000060 69.593155 -1.360675 -0.847214 90.185997
[R_rear_hand01]
15 103.366196 -6.073594 -10.757982 -156.049316 6.070419 -2.795869 104.101845
16 103.366196 -6.073594 -10.757982 -156.049316 6.070419 -2.795869 104.101845
[R_rear_hand02]
15 100.509819 12.039542 -7.992327 -38.708435 1.958051 5.461187 101.543350
16 100.509819 12.039542 -7.992327 -38.708435 1.958051 5.461186 101.543350
[R_rear_hand03]
15 101.539970 5.215704 5.435467 84.307625 -2.361032 4.099037 101.819031
16 101.539970 5.215704 5.435467 84.307625 -2.361032 4.099037 101.819031
[Rope4_Seg01]
15 -0.000012 -0.000278 -0.000153 70.191689 -50.672745 -125.341293 0.000318
16 -0.000011 -0.000293 -0.000153 48.152489 -58.153160 -95.080063 0.000330
[Rope4_Seg02]
15 139.999985 0.000060 0.000119 -2.998633 -3.987422 -8.158335 139.999985
16 139.999985 0.000060 0.000119 -1.681984 -3.489175 -10.949696 139.999985
[Rope4_Seg03]
15 139.999924 0.000000 -0.000238 -8.265831 -4.124071 -13.627431 139.999924
16 139.999924 0.000000 -0.000238 -4.165748 -2.747944 -13.593989 139.999924
[Rope4_Seg04]
15 139.999985 0.000000 0.000119 -18.767654 -0.129559 -18.733034 139.999985
16 139.999985 0.000000 0.000119 -6.259034 1.784724 -11.886633 139.999985
[Rope4_Seg05]
15 139.999802 -0.000060 -0.000119 -65.999924 -18.992514 -38.693081 139.999802
16 139.999802 -0.000060 -0.000119 -8.991398 -9.731501 -18.894279 139.999802
[Rope4_Seg06]
15 139.999924 0.000000 0.000060 -48.583172 20.902098 -26.486589 139.999924
16 139.999924 0.000000 0.000060 -54.990189 -17.414713 -38.425014 139.999924
[Rope4_Seg07]
15 139.999802 0.000000 0.000000 -4.431425 11.532142 -0.421249 139.999802
16 139.999802 0.000000 0.000000 -33.993847 12.167404 -16.136326 139.999802
[Rope4_Seg08]
15 139.999924 0.000000 0.000119 -2.767185 4.950212 0.198919 139.999924
16 139.999924 0.000000 0.000119 -9.084278 7.882136 -2.838587 139.999924
[Rope4_Seg09]
15 90.185791 0.000060 0.000060 -135.617828 2.228885 0.850567 90.185791
16 90.185791 0.000060 0.000060 -135.617828 2.228885 0.850567 90.185791
[L_rear_hand01]
15 101.696655 -8.392275 -7.654577 -19.915020 -33.950905 119.950104 102.329041
16 101.696655 -8.392275 -7.654577 -19.915020 -33.950905 119.950104 102.329041
[L_rear_hand02]
15 102.726799 -1.568258 5.773216 77.862221 61.878510 165.399200 102.900848
16 102.726799 -1.568258 5.773216 77.862221 61.878510 165.399200 102.900848
[L_rear_hand03]
15 104.552910 9.721220 -10.420293 -173.099182 -23.740307 -117.327896 105.519653
16 104.552910 9.721220 -10.420293 -173.099182 -23.740307 -117.327896 105.519653
